<svg id="Ebene_2" data-name="Ebene 2" xmlns="http://www.w3.org/2000/svg" viewBox="0 0 533.81 385.18"><defs><style>.cls-1{fill:#febf0f;}.cls-2{fill:#ff9702;}.cls-3{fill:#fff;}.cls-4{fill:#ffeb3c;}</style></defs><title>flappy</title><rect class="cls-1" x="161.26" y="252.49" width="187.06" height="99.52"/><polygon class="cls-2" points="501.1 252.49 501.1 219.31 347.86 219.31 347.86 252.49 314.23 252.49 314.23 285.66 348.32 285.66 348.32 318.83 490.11 318.83 490.11 285.66 456.01 285.66 456.01 252.49 501.1 252.49"/><rect class="cls-3" x="33.17" y="129.93" width="161.26" height="89.32"/><polygon class="cls-3" points="377.43 66.35 377.43 33.17 217.85 33.17 217.85 152.97 284.34 152.97 284.34 186.14 443.92 186.14 443.92 66.35 377.43 66.35"/><polygon class="cls-4" points="314.23 163.1 314.23 33.17 161.26 33.17 161.26 34.11 123.83 34.11 123.83 129.93 161.26 129.93 161.26 163.1 194.43 163.1 194.43 186.14 161.26 186.14 161.26 219.31 62.89 219.31 62.89 252.49 194.43 252.49 216.12 252.49 347.67 252.49 347.67 163.1 314.23 163.1"/><rect class="cls-4" x="12.94" y="186.07" width="53.41" height="33.17"/><polygon points="161.26 96.76 123.83 96.76 123.83 66.35 191.21 66.35 191.21 33.17 123.83 33.17 123.83 63.58 85.5 63.58 85.5 96.76 33.17 96.76 33.17 129.93 161.26 129.93 161.26 96.76"/><rect x="222.24" y="352.01" width="126.08" height="33.17"/><polygon points="348.32 285.66 467.46 285.66 467.46 318.83 348.32 318.83 348.32 352.01 500.63 352.01 500.63 327.2 500.63 318.83 500.63 285.66 500.63 283.1 500.63 252.49 348.32 252.49 348.32 285.66"/><rect x="314.23" y="33.17" width="33.17" height="33.17"/><rect x="161.26" y="129.93" width="33.17" height="33.17"/><rect x="161.26" y="219.31" width="33.17" height="33.17"/><rect x="281.98" y="252.49" width="33.17" height="33.17"/><polygon points="348.32 219.31 500.63 219.31 500.63 186.14 477.09 186.14 477.09 99.52 443.92 99.52 443.92 186.14 347.4 186.14 347.4 219.31 315.15 219.31 315.15 252.49 348.32 252.49 348.32 219.31"/><rect x="314.23" y="152.97" width="33.17" height="33.17"/><rect x="377.57" y="99.52" width="33.17" height="59.99"/><rect x="194.43" y="163.1" width="33.17" height="56.21"/><rect y="129.93" width="33.17" height="89.38"/><rect x="281.05" y="66.35" width="33.17" height="86.62"/><rect x="315.15" y="285.66" width="33.17" height="33.17"/><rect x="500.64" y="219.31" width="33.17" height="33.17"/><rect x="161.26" y="318.84" width="60.98" height="33.17"/><polygon points="161.26 279 161.26 252.49 66.35 252.49 66.35 285.66 128.09 285.66 128.09 318.83 161.26 318.83 161.26 285.66 161.26 279"/><rect x="33.17" y="219.31" width="33.17" height="33.17"/><rect x="377.57" y="33.17" width="33.17" height="33.17"/><rect x="410.75" y="66.35" width="33.17" height="33.17"/><rect x="191.21" width="186.36" height="33.17"/></svg>